<svg width="136" height="29" viewBox="0 0 136 29" fill="none" xmlns="http://www.w3.org/2000/svg">
<path d="M76.4551 9.58335C75.6546 9.42364 74.8385 9.35541 74.0225 9.37997C72.5078 9.46025 71.0011 9.64758 69.4141 9.81083V1.06775C67.9101 1.30861 66.5613 1.62707 65.2018 1.71003C64.0885 1.77426 63.9948 2.30682 64.0002 3.21672C64.035 8.87685 64.0163 14.537 64.0163 20.1944V27.3746L66.7995 27.776C69.8236 28.2123 72.8343 28.3434 75.8343 27.5539C78.4275 26.8715 80.0653 24.9955 80.1376 22.3059C80.2125 19.5495 80.2125 16.7912 80.1376 14.0312C80.0787 11.6306 78.6683 9.97943 76.4551 9.58335ZM74.7959 21.6262C74.7665 22.7421 73.7629 23.6119 72.5078 23.6975C71.7049 23.7537 70.8753 23.6975 70.0591 23.7243C69.4917 23.7484 69.3766 23.4701 69.382 22.9776C69.4007 21.661 69.382 20.3416 69.382 19.0223C69.382 17.7671 69.3981 16.512 69.382 15.2569C69.382 14.7404 69.5212 14.4005 70.051 14.3068C71.0252 14.1355 71.9966 13.8786 72.9761 13.8385C73.9556 13.7983 74.7825 14.6815 74.8039 15.6369C74.8441 17.6253 74.8521 19.6244 74.7959 21.6181V21.6262Z" fill="white"/>
<path d="M130.517 18.8939C130.1 18.2276 130.137 17.7646 130.555 17.1223C132.257 14.505 133.897 11.8475 135.615 9.12051C133.777 9.12051 132.053 9.09642 130.333 9.14459C130.161 9.16586 129.995 9.22251 129.847 9.31095C129.698 9.39939 129.569 9.5177 129.468 9.65842C128.293 11.4729 127.169 13.3221 126.024 15.1553C125.582 15.8591 125.119 16.5523 124.664 17.2508L124.37 17.1865V0.580811C123.155 0.778848 122.146 0.950124 121.135 1.11605C118.935 1.46663 118.927 1.46663 118.927 3.70392C118.927 11.2829 118.927 18.8591 118.908 26.4354C118.908 27.2142 119.111 27.4871 119.906 27.4416C121.068 27.3801 122.234 27.3881 123.385 27.4416C124.092 27.4738 124.314 27.2383 124.303 26.5344C124.266 24.3025 124.284 22.0679 124.303 19.844C124.323 19.5016 124.359 19.1604 124.413 18.8217C124.678 18.9395 124.898 19.1393 125.042 19.3917C126.455 21.7601 127.841 24.1419 129.292 26.4863C129.535 26.885 130.019 27.3667 130.421 27.3908C132.077 27.4925 133.747 27.4336 135.583 27.4336C135.334 26.9599 135.176 26.6308 134.986 26.3096C133.509 23.8235 132.048 21.34 130.517 18.8939Z" fill="white"/>
<path d="M61.7877 15.2035C61.6512 11.9332 59.9545 9.8645 56.7779 9.15799C54.7202 8.68961 52.5797 8.72726 50.5397 9.26772C48.1312 9.91535 46.207 12.0322 46.0946 14.4167C45.9822 16.8012 45.8912 19.1803 46.116 21.5327C46.3649 24.1419 47.7699 26.1036 50.3738 26.976C53.8903 28.1509 57.4202 27.5889 60.9421 26.9947C61.0512 26.9531 61.1484 26.8852 61.225 26.7969C61.3015 26.7087 61.3551 26.6029 61.3809 26.4889C61.4184 25.2392 61.4024 23.9921 61.4024 22.6326C61.009 22.6807 60.744 22.7262 60.4764 22.745C58.3542 22.9029 56.232 23.1437 54.1071 23.1839C52.3542 23.216 51.4978 22.3944 51.4095 20.9546C51.3372 19.7637 51.3694 19.7262 52.5495 19.7236C55.3488 19.7236 58.1481 19.7075 60.9474 19.7236C61.5817 19.7236 61.86 19.5523 61.8332 18.8725C61.7877 17.6549 61.8359 16.4265 61.7877 15.2035ZM56.4032 15.9421C56.3595 16.0151 56.2996 16.0772 56.2281 16.1236C56.1567 16.17 56.0756 16.1994 55.9911 16.2097C54.835 16.2338 53.6762 16.2285 52.5121 16.2311H51.538C51.0375 13.654 52.4853 12.2891 54.8885 12.9261C56.0018 13.2311 56.8635 14.9171 56.4006 15.9421H56.4032Z" fill="white"/>
<path d="M93.9955 9.29709C91.8982 8.72028 89.6897 8.67979 87.5727 9.17933C84.7466 9.82965 82.9562 11.529 82.5414 14.4273C82.3621 15.6825 82.512 16.9858 82.512 18.2676H82.4585C82.4585 19.3221 82.3702 20.3899 82.4745 21.4336C82.7181 23.8662 83.7618 25.7824 86.157 26.7619C88.5521 27.7413 90.9393 27.7922 93.4121 27.2596C96.3559 26.628 98.2292 24.8778 98.4968 21.8912C98.7043 19.4514 98.7043 16.9983 98.4968 14.5585C98.3015 11.8127 96.6422 10.0304 93.9955 9.29709ZM93.2596 18.3212C93.2596 19.1374 93.2596 19.951 93.2596 20.7672C93.2596 22.0357 92.7243 22.7369 91.5093 23.0821C89.2747 23.7137 87.7091 22.5228 87.7466 20.2132C87.7734 18.5727 87.6851 16.9189 87.8644 15.2944C88.0356 13.7396 89.2453 13.0973 91.1186 13.306C92.5182 13.4639 93.2596 14.3069 93.2596 15.7788C93.2622 16.6352 93.2596 17.4809 93.2596 18.3292V18.3212Z" fill="white"/>
<path d="M116.917 15.166C116.772 12.273 115.044 10.0223 112.322 9.30245C110.224 8.72798 108.016 8.68933 105.899 9.19005C102.522 9.99291 100.78 12.2008 100.774 15.6397C100.774 17.5264 100.755 19.4131 100.774 21.2998C100.773 22.5645 101.175 23.7966 101.921 24.8176C102.668 25.8386 103.72 26.5955 104.925 26.9786C106.984 27.6587 109.183 27.8024 111.313 27.3961C114.524 26.8234 116.216 25.1776 116.77 21.934C116.978 20.7057 116.933 19.4345 117.005 18.1874H116.917C116.917 17.1758 116.957 16.1669 116.917 15.166ZM111.565 20.7859C111.546 22.0438 110.987 22.761 109.78 23.0982C107.657 23.6896 106.017 22.5281 106.003 20.3551C105.959 18.6326 106.013 16.9091 106.164 15.1927C106.319 13.7503 107.588 13.1053 109.408 13.306C110.746 13.4532 111.549 14.3471 111.562 15.6932C111.562 16.5415 111.562 17.3926 111.562 18.2409C111.562 19.0893 111.565 19.9456 111.565 20.8047V20.7859Z" fill="white"/>
<path d="M27.8002 17.1383C27.807 15.9818 27.74 14.826 27.5994 13.678C27.2649 11.2453 25.9215 9.86978 23.5049 9.4416C22.5812 9.27897 21.6461 9.18948 20.7083 9.17398C18.752 9.13383 16.793 9.16059 14.7725 9.16059C14.6307 10.3809 14.5049 11.5531 14.3577 12.7253C14.2881 13.2899 14.5129 13.5121 15.0936 13.5014C16.6351 13.4773 18.1766 13.4612 19.7181 13.5014C21.9126 13.5656 22.5522 14.3042 22.4451 16.488C22.4184 17.066 22.1775 17.2641 21.6423 17.256C20.8528 17.2427 20.0633 17.256 19.2765 17.2694C18.372 17.2855 17.4674 17.2694 16.5682 17.3444C14.2747 17.5076 12.3586 19.0464 12.396 22.2498C12.4389 26.141 15.3398 28.2043 19.0223 27.4737C20.3604 27.2061 21.6556 26.7699 23.1115 26.3738C23.082 27.4576 23.7859 27.4844 24.6101 27.4309C25.3943 27.38 26.181 27.38 26.9652 27.4309C27.6423 27.4764 27.8216 27.2141 27.8162 26.5665C27.8002 23.4246 27.8216 20.2694 27.8002 17.1383ZM21.3773 23.521C20.8858 23.7228 20.369 23.856 19.8412 23.9171C18.6048 24.0348 17.8769 23.4487 17.8126 22.3756C17.7404 21.2088 18.2515 20.7083 19.6084 20.6387C19.9509 20.62 20.2988 20.6387 20.644 20.6387C20.733 20.629 20.8227 20.629 20.9117 20.6387C21.4469 20.7725 22.2497 20.2427 22.413 21.2676C22.6378 22.6405 22.4478 23.0955 21.3773 23.521Z" fill="white"/>
<path d="M11.264 9.13388C11.1731 9.13388 11.0821 9.16063 10.9964 9.15528C7.64318 8.98401 8.27208 9.71193 8.23996 6.12584C8.23996 5.26679 8.66815 4.62718 9.65834 4.57901C10.3756 4.54154 11.0928 4.45323 11.7993 4.4452C12.3131 4.4452 12.5379 4.27393 12.5219 3.73066C12.4924 2.7271 12.4951 1.72085 12.5219 0.714603C12.5219 0.179366 12.3479 -0.0267007 11.8127 0.00273735C10.2819 0.0830228 8.74041 0.0535868 7.21766 0.222186C4.84389 0.489804 3.38537 1.89213 3.04817 4.24984C2.8964 5.55455 2.83025 6.86779 2.85013 8.18115C2.85013 8.81808 2.77788 9.12317 1.98305 9.09373C-1.07288e-06 9.02415 0 9.07767 0 11.0206V11.4916C0 13.4238 -3.57628e-07 13.4532 1.96699 13.48C2.69491 13.48 2.86084 13.7744 2.85013 14.4407C2.81534 16.4532 2.83675 18.455 2.83675 20.4755C2.83675 22.496 2.86351 24.4898 2.83675 26.5103C2.83675 27.1928 2.99465 27.4737 3.72524 27.4363C4.82316 27.3667 5.92438 27.3667 7.0223 27.4363C7.97235 27.5085 8.2587 27.2249 8.24532 26.2507C8.18644 22.4184 8.21855 18.5808 8.22123 14.7432C8.22123 13.5148 8.25067 13.4934 9.50847 13.488C10.1695 13.488 10.8305 13.4693 11.4888 13.488C11.9652 13.5014 12.1472 13.3141 12.1632 12.8243C12.1872 12.0433 12.2623 11.2646 12.388 10.4934C12.6155 9.12317 12.6423 9.12585 11.264 9.13388Z" fill="white"/>
<path d="M42.9287 9.28103C40.662 8.97862 38.4033 8.7003 36.1044 9.02679C33.0134 9.46301 30.9688 11.1677 30.3265 14.2266C29.8007 16.877 29.8007 19.6048 30.3265 22.2552C30.8404 25.0277 32.6521 26.5665 35.3149 27.2543C38.0313 27.9554 40.7048 27.562 43.3756 27.0241C43.4953 26.9826 43.6027 26.9119 43.6882 26.8185C43.7737 26.725 43.8346 26.6117 43.8653 26.4889C43.9108 25.2445 43.8894 23.9974 43.8894 22.6753L43.1348 22.7476C41.4862 22.9028 39.8377 23.1838 38.1892 23.1784C36.1579 23.1784 35.3845 22.2659 35.3738 20.2561C35.3738 18.843 35.3738 17.43 35.3738 16.0143C35.3738 14.232 36.2168 13.3167 38.0152 13.3381C39.9447 13.3569 41.8743 13.5335 43.9028 13.6432C43.9028 12.6316 43.8332 11.529 43.9242 10.4318C43.9778 9.61823 43.5496 9.36399 42.9287 9.28103Z" fill="white"/>
</svg>
